<svg width="24" height="17" viewBox="0 0 24 17" fill="none" xmlns="http://www.w3.org/2000/svg">
<path d="M6.25 1.4165C5.00736 1.4165 4 2.13005 4 3.01025V13.9894C4 14.8696 5.00736 15.5832 6.25 15.5832H17.75C18.9926 15.5832 20 14.8696 20 13.9894V3.01025C20 2.13005 18.9926 1.4165 17.75 1.4165H6.25ZM5.5 3.01025C5.5 2.71686 5.83579 2.479 6.25 2.479H17.75C18.1642 2.479 18.5 2.71686 18.5 3.01025V13.9894C18.5 14.2828 18.1642 14.5207 17.75 14.5207H6.25C5.83579 14.5207 5.5 14.2828 5.5 13.9894V3.01025ZM7.75 4.604C7.33579 4.604 7 4.84186 7 5.13525C7 5.42865 7.33579 5.6665 7.75 5.6665H16.25C16.6642 5.6665 17 5.42865 17 5.13525C17 4.84186 16.6642 4.604 16.25 4.604H7.75ZM7 11.5103C7 11.2169 7.33579 10.979 7.75 10.979H16.25C16.6642 10.979 17 11.2169 17 11.5103C17 11.8036 16.6642 12.0415 16.25 12.0415H7.75C7.33579 12.0415 7 11.8036 7 11.5103ZM7.75 7.7915C7.33579 7.7915 7 8.02936 7 8.32275C7 8.61615 7.33579 8.854 7.75 8.854H16.25C16.6642 8.854 17 8.61615 17 8.32275C17 8.02936 16.6642 7.7915 16.25 7.7915H7.75Z" fill="#008000"/>
</svg>
