<?xml version="1.0" standalone="no"?>
<!DOCTYPE svg PUBLIC "-//W3C//DTD SVG 20010904//EN"
 "http://www.w3.org/TR/2001/REC-SVG-20010904/DTD/svg10.dtd">
<svg version="1.0" xmlns="http://www.w3.org/2000/svg"
 width="50.000000pt" height="50.000000pt" viewBox="0 0 127.000000 134.000000"
 preserveAspectRatio="xMidYMid meet">

<g transform="translate(0.000000,134.000000) scale(0.100000,-0.100000)"
fill="#000000" stroke="none">
<path d="M390 1195 c0 -159 10 -226 47 -298 45 -90 149 -179 208 -179 33 0
115 53 152 100 76 94 92 156 97 361 l4 161 -254 0 -254 0 0 -145z m103 55 c-4
-14 0 -18 14 -16 10 2 18 11 18 21 0 10 5 20 12 22 14 5 1 -51 -18 -73 -14
-17 -50 -18 -71 -1 -21 16 -33 78 -14 71 8 -3 12 -14 8 -26 -4 -16 -1 -19 14
-16 11 2 19 12 20 23 2 36 4 40 13 26 5 -7 6 -21 4 -31z m190 31 c5 0 7 -16 5
-33 -3 -31 -5 -33 -45 -35 -42 -3 -43 -2 -43 30 0 48 3 49 83 38z m130 -31
c-4 -14 0 -18 13 -16 11 2 19 11 19 21 0 10 6 20 12 22 10 4 10 -3 1 -29 -15
-45 -27 -58 -52 -58 -32 0 -53 20 -59 57 -5 25 -3 31 7 27 8 -3 12 -14 9 -24
-4 -13 0 -18 13 -16 20 3 32 26 14 26 -9 0 -9 4 0 15 16 19 30 3 23 -25z
m-163 -50 c0 -5 -5 -10 -11 -10 -5 0 -7 5 -4 10 3 6 8 10 11 10 2 0 4 -4 4
-10z m-33 -6 c-3 -3 -12 -4 -19 -1 -8 3 -5 6 6 6 11 1 17 -2 13 -5z m76 -1
c-7 -2 -19 -2 -25 0 -7 3 -2 5 12 5 14 0 19 -2 13 -5z m100 -147 c42 -32 77
-63 77 -68 0 -15 -29 -78 -35 -78 -4 0 -47 32 -97 71 -49 39 -95 68 -101 66
-7 -3 -50 -35 -96 -71 -46 -36 -88 -66 -92 -66 -8 0 -29 55 -29 76 0 7 50 52
111 99 l111 85 37 -27 c20 -16 71 -54 114 -87z m-187 -124 c-5 -45 10 -72 39
-72 23 0 25 3 19 28 -4 15 -10 37 -15 48 -6 17 -4 21 9 20 18 -1 32 -15 32
-31 0 -5 -5 -3 -10 5 -7 11 -10 8 -9 -15 0 -16 3 -24 6 -17 2 6 9 12 13 12 5
0 2 -16 -6 -35 -11 -27 -12 -40 -3 -56 15 -29 0 -41 -47 -37 -35 3 -39 6 -36
28 4 37 3 62 -2 94 -4 26 1 56 10 56 2 0 2 -13 0 -28z m35 -21 c6 10 9 7 9
-13 0 -20 -4 -26 -15 -22 -9 4 -14 18 -14 38 1 26 2 27 6 7 4 -19 7 -21 14
-10z"/>
<path d="M630 830 c18 -12 30 -13 30 -2 0 4 -10 9 -22 9 -18 2 -20 0 -8 -7z"/>
<path d="M13 639 c14 -8 17 -25 17 -103 0 -77 3 -96 18 -109 10 -10 27 -17 38
-17 17 0 16 1 -4 16 -20 14 -22 23 -22 114 0 69 4 100 12 103 7 3 -7 6 -32 6
-35 0 -41 -2 -27 -10z"/>
<path d="M143 643 c15 -4 17 -17 17 -97 0 -92 -8 -118 -40 -129 -13 -5 -12 -6
1 -6 33 -2 44 30 49 136 l5 103 -25 -1 c-17 -1 -19 -3 -7 -6z"/>
<path d="M372 624 c4 -21 22 -23 26 -1 2 10 -3 17 -13 17 -10 0 -15 -6 -13
-16z"/>
<path d="M970 626 c0 -8 4 -17 9 -20 11 -7 33 18 24 27 -12 12 -33 7 -33 -7z"/>
<path d="M1040 526 c0 -101 9 -120 52 -114 18 2 23 10 25 33 2 28 1 28 -5 5
-5 -14 -14 -25 -22 -25 -12 0 -15 17 -17 80 -1 44 -2 88 -2 98 -1 9 -8 17 -16
17 -12 0 -15 -17 -15 -94z"/>
<path d="M256 581 c-3 -5 -15 -7 -26 -4 -19 5 -20 0 -20 -75 0 -55 -4 -82 -12
-85 -7 -3 5 -5 27 -5 22 0 34 2 28 5 -19 7 -17 137 2 153 8 7 22 10 30 6 20
-7 22 -152 3 -159 -7 -3 1 -6 17 -6 l30 -1 -3 77 c-2 43 -8 84 -14 91 -12 14
-54 16 -62 3z"/>
<path d="M585 565 c-50 -49 -20 -155 44 -155 29 0 61 27 61 51 0 8 -6 3 -13
-11 -18 -36 -64 -40 -77 -6 -11 31 -11 94 2 119 15 29 48 21 55 -13 6 -30 33
-43 33 -15 0 22 -37 55 -60 55 -12 0 -32 -11 -45 -25z"/>
<path d="M766 581 c-3 -5 -15 -7 -26 -4 -19 5 -20 0 -20 -75 0 -55 -4 -82 -12
-85 -7 -3 5 -5 27 -5 22 0 34 2 28 5 -18 7 -17 124 1 149 14 18 15 17 30 -16
l15 -35 1 38 c0 30 -4 37 -19 37 -11 0 -22 -4 -25 -9z"/>
<path d="M840 570 c-11 -11 -20 -26 -20 -33 0 -19 30 -45 68 -58 36 -12 43
-42 15 -58 -24 -14 -7 -14 18 -1 12 7 19 21 19 41 0 26 -6 33 -45 50 -52 23
-61 34 -44 55 18 21 51 13 66 -16 l13 -25 0 26 c0 42 -55 54 -90 19z"/>
<path d="M368 495 c-3 -79 -2 -85 17 -85 19 0 20 6 17 85 -3 63 -7 85 -17 85
-10 0 -14 -22 -17 -85z"/>
<path d="M450 498 c16 -44 32 -83 35 -86 5 -6 29 48 39 88 4 16 0 12 -10 -10
l-16 -35 -19 45 c-10 25 -18 53 -18 63 -1 10 -9 17 -21 17 -19 0 -19 -3 10
-82z"/>
<path d="M537 558 c-9 -31 -2 -33 11 -3 6 14 8 25 3 25 -5 0 -11 -10 -14 -22z"/>
<path d="M968 495 c-3 -79 -2 -85 17 -85 19 0 20 6 17 85 -3 63 -7 85 -17 85
-10 0 -14 -22 -17 -85z"/>
<path d="M1123 568 c3 -7 17 -44 33 -82 23 -59 26 -73 16 -99 -6 -17 -7 -26
-2 -21 12 12 82 205 76 211 -2 3 -12 -20 -22 -51 -10 -31 -21 -56 -24 -56 -8
0 -40 79 -40 98 0 7 -9 12 -21 12 -13 0 -19 -5 -16 -12z"/>
<path d="M618 513 c7 -3 16 -2 19 1 4 3 -2 6 -13 5 -11 0 -14 -3 -6 -6z"/>
<path d="M821 453 c-1 -24 4 -33 20 -38 11 -4 23 -4 26 -1 4 3 1 6 -5 6 -7 0
-18 15 -26 33 l-14 32 -1 -32z"/>
<path d="M1120 389 c0 -15 7 -29 15 -33 18 -7 18 2 0 34 l-14 25 -1 -26z"/>
<path d="M203 364 c15 -5 17 -20 17 -134 0 -112 -2 -130 -17 -139 -14 -8 -5
-10 37 -10 30 1 47 3 38 6 -15 4 -18 16 -18 69 0 35 2 64 4 64 3 0 27 -31 55
-70 46 -62 55 -70 84 -69 17 0 27 3 20 5 -11 5 -103 127 -103 137 0 3 11 8 24
11 56 14 75 76 35 112 -17 15 -38 19 -108 21 -47 1 -78 0 -68 -3z m137 -24
c38 -38 13 -95 -47 -106 l-33 -6 0 66 0 66 30 0 c17 0 39 -9 50 -20z"/>
<path d="M800 340 c0 -13 7 -20 20 -20 13 0 20 7 20 20 0 13 -7 20 -20 20 -13
0 -20 -7 -20 -20z"/>
<path d="M127 323 c-11 -10 -8 -143 3 -143 6 0 10 32 10 75 0 75 -1 81 -13 68z"/>
<path d="M155 320 c3 -5 8 -10 11 -10 2 0 4 5 4 10 0 6 -5 10 -11 10 -5 0 -7
-4 -4 -10z"/>
<path d="M463 288 c-24 -12 -53 -64 -53 -97 0 -34 26 -88 48 -100 47 -25 112
-2 112 40 0 8 8 1 19 -16 14 -22 16 -35 8 -49 -17 -34 53 -76 106 -62 31 7 67
43 67 66 0 35 -28 50 -89 50 -39 0 -63 5 -71 15 -20 24 -2 37 45 30 71 -11
117 32 95 89 -6 17 -5 26 3 29 7 2 -10 7 -37 11 -67 10 -101 -14 -101 -71 0
-36 -25 -80 -38 -67 -2 3 -9 -9 -15 -25 -11 -31 -47 -49 -76 -38 -17 7 -40 82
-32 103 4 10 23 14 66 14 33 0 60 2 60 4 0 23 -26 66 -46 75 -30 13 -42 13
-71 -1z m65 -35 c3 -32 2 -33 -36 -33 -37 0 -40 2 -35 23 9 33 24 48 47 45 16
-2 22 -11 24 -35z m186 4 c15 -40 -3 -82 -34 -82 -22 0 -25 5 -28 43 -5 70 41
99 62 39z m34 -199 c2 -12 -8 -23 -32 -34 -46 -22 -96 -5 -96 33 0 23 2 24 62
21 50 -2 63 -6 66 -20z"/>
<path d="M946 285 c-17 -17 -30 -20 -21 -5 4 6 -7 10 -27 9 -18 0 -27 -3 -20
-6 8 -3 12 -33 12 -98 0 -65 -4 -95 -12 -98 -7 -3 7 -6 32 -6 27 0 40 3 32 8
-9 5 -12 31 -10 91 3 87 16 111 52 97 13 -5 16 -22 16 -96 0 -62 -4 -91 -12
-94 -7 -3 7 -5 32 -5 25 0 39 2 33 5 -9 3 -13 32 -13 92 0 72 -3 91 -18 104
-23 21 -56 22 -76 2z"/>
<path d="M1108 293 c-13 -3 -18 -14 -18 -41 l1 -37 17 35 c28 57 82 49 82 -12
0 -30 -1 -31 -68 -48 -55 -14 -73 -47 -48 -85 20 -30 69 -34 98 -8 17 15 18
15 18 0 0 -12 9 -17 27 -17 21 0 24 3 15 12 -7 7 -12 44 -12 94 0 74 -2 84
-22 98 -22 15 -54 19 -90 9z m82 -128 c0 -62 -59 -99 -81 -51 -15 32 3 63 44
75 17 5 33 10 35 10 1 1 2 -15 2 -34z"/>
<path d="M32 278 c-16 -16 -15 -73 1 -86 9 -8 12 2 12 44 0 30 0 54 0 54 -1 0
-6 -5 -13 -12z"/>
<path d="M75 235 c0 -42 3 -51 13 -43 6 6 12 25 12 43 0 18 -6 37 -12 43 -10
8 -13 -1 -13 -43z"/>
<path d="M788 283 c8 -3 12 -33 12 -98 0 -65 -4 -95 -12 -98 -7 -3 3 -6 22 -6
l35 -1 -3 105 -3 105 -32 -1 c-18 0 -26 -3 -19 -6z"/>
</g>
</svg>
